<svg width="101" height="99" viewBox="0 0 101 99" fill="none" xmlns="http://www.w3.org/2000/svg">
<path d="M50.3277 66.8538C59.9081 66.8538 67.6745 59.0874 67.6745 49.507C67.6745 39.9266 59.9081 32.1602 50.3277 32.1602C40.7473 32.1602 32.9808 39.9266 32.9808 49.507C32.9808 59.0874 40.7473 66.8538 50.3277 66.8538Z" fill="#0075F2"/>
<path d="M81.0317 69.1315C91.8697 69.1315 100.656 60.3456 100.656 49.5077C100.656 38.6697 91.8697 29.8838 81.0317 29.8838C70.1937 29.8838 61.4078 38.6697 61.4078 49.5077C61.4078 60.3456 70.1937 69.1315 81.0317 69.1315Z" fill="#0075F2"/>
<path d="M50.328 98.9997C61.1659 98.9997 69.9518 90.2138 69.9518 79.3758C69.9518 68.5379 61.1659 59.752 50.328 59.752C39.49 59.752 30.7041 68.5379 30.7041 79.3758C30.7041 90.2138 39.49 98.9997 50.328 98.9997Z" fill="#0075F2"/>
<path d="M19.6239 69.1315C30.4618 69.1315 39.2477 60.3456 39.2477 49.5077C39.2477 38.6697 30.4618 29.8838 19.6239 29.8838C8.7859 29.8838 0 38.6697 0 49.5077C0 60.3456 8.7859 69.1315 19.6239 69.1315Z" fill="#0075F2"/>
<path d="M50.328 39.2477C61.1659 39.2477 69.9518 30.4618 69.9518 19.6239C69.9518 8.7859 61.1659 0 50.328 0C39.49 0 30.7041 8.7859 30.7041 19.6239C30.7041 30.4618 39.49 39.2477 50.328 39.2477Z" fill="#0075F2"/>
</svg>
